<svg width="325" height="91" viewBox="0 0 325 91" fill="none" xmlns="http://www.w3.org/2000/svg">
<path d="M60.0274 0L0 90.209C11.0419 90.209 21.7168 86.7422 28.8366 81.683C36.0898 76.5282 41.9753 72.368 41.9753 72.368C40.8649 69.5468 40.3788 66.4099 40.722 63.1248C41.7037 53.7285 49.5049 46.288 58.9074 45.7572C70.1399 45.1212 79.4471 54.0728 79.4471 65.2049C79.4471 67.7345 78.961 70.1493 78.0842 72.368C78.0842 72.368 83.6551 76.3083 91.3659 81.7643C98.4714 86.7948 109.084 90.209 120.059 90.209L60.0274 0Z" fill="url(#paint0_linear_4_174)"/>
<path d="M24.6903 90.2088H95.364L66.556 69.8239C62.6387 67.0552 57.4108 67.0552 53.4983 69.8239L24.6903 90.2088V90.2088Z" fill="#BC4EDA"/>
<path d="M149.913 38.551V13.346H151.252V37.346H164.057V38.551H149.913Z" fill="#224561"/>
<path d="M176.009 38.7662C170.805 38.7662 167.445 34.9025 167.445 28.9252V13.346H168.785V28.7818C168.785 34.1948 171.553 37.5612 176.009 37.5612C180.465 37.5612 183.2 34.1996 183.2 28.7818V13.346H184.54V28.9252C184.54 34.9025 181.194 38.7662 176.009 38.7662V38.7662Z" fill="#224561"/>
<path d="M213.147 38.551V21.719L213.343 15.7417L203.378 30.9623L202.911 30.9814L192.875 15.7322L193.065 21.7142V38.551H191.726V13.346H192.855L203.14 28.9491L213.352 13.3699L214.486 13.346V38.551H213.147Z" fill="#224561"/>
<path d="M223.689 13.346H222.35V38.551H223.689V13.346Z" fill="#224561"/>
<path d="M247.517 38.551L232.381 15.297L232.357 15.3257C232.51 18.0035 232.567 20.2175 232.567 22.9336V38.551H231.228V13.346H232.519L247.664 36.5761C247.493 33.8122 247.469 31.0483 247.469 28.71V13.346H248.808V38.551H247.517V38.551Z" fill="#224561"/>
<path d="M267.332 38.7662C260.155 38.7662 255.332 33.6449 255.332 26.0227C255.332 18.4004 260.155 13.1357 267.332 13.1357C274.509 13.1357 279.298 18.3144 279.298 26.0227C279.298 33.7309 274.49 38.7662 267.332 38.7662ZM267.332 14.3741C260.994 14.3741 256.733 19.0555 256.733 26.0227C256.733 32.9898 260.994 37.5277 267.332 37.5277C273.67 37.5277 277.897 33.0137 277.897 26.0227C277.897 19.0316 273.751 14.3741 267.332 14.3741V14.3741Z" fill="#224561"/>
<path d="M293.895 38.7662C288.691 38.7662 285.331 34.9025 285.331 28.9252V13.346H286.671V28.7818C286.671 34.1948 289.439 37.5612 293.895 37.5612C298.351 37.5612 301.086 34.1996 301.086 28.7818V13.346H302.426V28.9252C302.426 34.9025 299.08 38.7662 293.895 38.7662V38.7662Z" fill="#224561"/>
<path d="M317.142 38.7662C312.848 38.7662 309.926 36.6909 308.235 34.9503L308.206 34.9216L309.088 33.8409L309.126 33.8792C311.347 36.3084 314.12 37.5947 317.146 37.5947C321.24 37.5947 323.585 35.6485 323.585 32.2582C323.585 28.5809 320.435 27.5289 316.317 26.5295C312.948 25.7071 309.078 24.1578 309.078 19.4524C309.078 15.4931 311.885 13.1261 316.594 13.1261C319.944 13.1261 322.884 14.575 324.519 15.933L324.552 15.9617L323.813 17.0807L323.775 17.0472C323.013 16.4016 320.249 14.2976 316.698 14.2976C313.696 14.2976 310.489 15.6413 310.489 19.4142C310.489 23.187 313.772 24.3968 317.137 25.2863C321.116 26.3383 325 27.7441 325 32.2534C325 36.3275 322.069 38.7567 317.161 38.7567L317.142 38.7662Z" fill="#224561"/>
<path d="M149.913 76.8677V51.6628H165.401V52.8678H151.252V64.1815H163.404V65.3866H151.252V76.8677H149.913Z" fill="#224561"/>
<path d="M178.859 77.0829C173.655 77.0829 170.295 73.2192 170.295 67.2419V51.6628H171.634V67.0985C171.634 72.5115 174.403 75.8779 178.859 75.8779C183.315 75.8779 186.05 72.5163 186.05 67.0985V51.6628H187.389V67.2419C187.389 73.2192 184.044 77.0829 178.859 77.0829V77.0829Z" fill="#224561"/>
<path d="M200.461 76.8677V52.8678H192.141V51.6628H210.116V52.8678H201.801V76.8677H200.461Z" fill="#224561"/>
<path d="M223.16 77.0828C217.956 77.0828 214.596 73.2191 214.596 67.2418V51.6627H215.935V67.0984C215.935 72.5114 218.704 75.8778 223.16 75.8778C227.616 75.8778 230.351 72.5162 230.351 67.0984V51.6627H231.69V67.2418C231.69 73.2191 228.345 77.0828 223.16 77.0828V77.0828Z" fill="#224561"/>
<path d="M254.389 76.8676L249.347 67.4379C248.961 67.5048 248.57 67.5383 248.16 67.5383H240.216V76.8676H238.877V51.6627H248.16C253.026 51.6627 256.033 55.7846 256.033 59.6005C256.033 62.9812 253.745 66.1516 250.586 67.1605L255.837 76.8676H254.389ZM247.931 66.3333C251.834 66.3333 254.665 63.5024 254.665 59.6005C254.665 56.2532 252.354 52.8677 247.931 52.8677H240.216V66.3333H247.931Z" fill="#224561"/>
<path d="M262.471 76.8676V51.6627H278.026V52.8677H263.81V64.0045H276.058V65.1713H263.81V75.6626H278.612V76.8676H262.471Z" fill="#224561"/>
<path d="M291.141 77.0828C286.847 77.0828 283.926 75.0075 282.234 73.2669L282.205 73.2382L283.087 72.1575L283.125 72.1958C285.346 74.625 288.119 75.9113 291.145 75.9113C295.239 75.9113 297.584 73.9651 297.584 70.5748C297.584 66.8975 294.434 65.8455 290.316 64.8461C286.947 64.0237 283.077 62.4743 283.077 57.769C283.077 53.8097 285.884 51.4427 290.593 51.4427C293.943 51.4427 296.883 52.8916 298.518 54.2496L298.551 54.2783L297.813 55.3973L297.774 55.3638C297.012 54.7182 294.248 52.6142 290.697 52.6142C287.695 52.6142 284.488 53.9579 284.488 57.7308C284.488 61.5036 287.771 62.7134 291.136 63.6029C295.115 64.6549 298.999 66.0607 298.999 70.57C298.999 74.6441 296.068 77.0732 291.16 77.0732L291.141 77.0828Z" fill="#224561"/>
<defs>
<linearGradient id="paint0_linear_4_174" x1="60.0274" y1="-0.349073" x2="60.0274" y2="90.1947" gradientUnits="userSpaceOnUse">
<stop stop-color="#4151D8"/>
<stop offset="0.23" stop-color="#4454D8"/>
<stop offset="0.42" stop-color="#4D5EDA"/>
<stop offset="0.6" stop-color="#5D70DD"/>
<stop offset="0.77" stop-color="#7489E1"/>
<stop offset="0.94" stop-color="#91A8E6"/>
<stop offset="1" stop-color="#9EB6E9"/>
</linearGradient>
</defs>
</svg>
